<svg width="267" height="267" viewBox="0 0 267 267" fill="none" xmlns="http://www.w3.org/2000/svg">
<path d="M133.5 267C207.23 267 267 207.23 267 133.5C267 59.77 207.23 0 133.5 0C59.77 0 0 59.77 0 133.5C0 207.23 59.77 267 133.5 267Z" fill="#49BDAC"/>
<path d="M133.5 267C170.918 267 204.951 251.582 229.206 226.574C207.019 202.694 172.422 187.464 133.5 187.464C94.5781 187.464 60.1691 202.882 37.7937 226.574C62.0493 251.582 95.8943 267 133.5 267Z" fill="#F6CD01"/>
<path d="M133.5 225.257C111.877 225.257 95.3303 210.215 97.9627 193.104L101.159 173.549H166.029L168.849 193.48C171.482 210.215 154.935 225.257 133.5 225.257Z" fill="#9F7248"/>
<path d="M133.5 192.165C108.868 192.165 88.7493 172.045 88.7493 147.414V65.4335C88.7493 55.2799 97.0225 47.1948 106.988 47.1948H160.012C170.166 47.1948 178.251 55.468 178.251 65.4335V147.414C178.251 172.045 158.132 192.165 133.5 192.165Z" fill="#231F20"/>
<path d="M84.9888 102.287C84.9888 106.988 87.4332 110.56 90.4416 110.56V93.8257C87.6212 94.0137 84.9888 97.5862 84.9888 102.287Z" fill="#8A5E3C"/>
<path d="M181.447 102.287C181.447 106.988 179.003 110.56 175.994 110.56V93.8257C179.003 94.0137 181.447 97.5862 181.447 102.287Z" fill="#8A5E3C"/>
<path d="M154.559 143.277H112.441C99.2789 143.277 88.5613 132.56 88.5613 119.398V83.4841C88.5613 77.4672 93.45 72.5786 99.4669 72.5786H167.721C173.738 72.5786 178.627 77.4672 178.627 83.4841V119.398C178.439 132.56 167.721 143.277 154.559 143.277Z" fill="#A87C50"/>
<path d="M133.5 170.729C142.149 170.729 149.106 165.653 149.106 159.26H117.894C117.894 165.653 124.851 170.729 133.5 170.729Z" fill="#F0F1F1"/>
<path d="M113.193 118.458C103.227 118.458 95.1421 110.372 95.1421 100.407C95.1421 90.4411 103.227 82.356 113.193 82.356C123.158 82.356 131.244 90.4411 131.244 100.407C131.244 110.372 123.158 118.458 113.193 118.458ZM113.193 85.1764C104.731 85.1764 97.9625 91.9453 97.9625 100.407C97.9625 108.868 104.731 115.637 113.193 115.637C121.654 115.637 128.423 108.868 128.423 100.407C128.423 91.9453 121.466 85.1764 113.193 85.1764Z" fill="#231F20"/>
<path d="M153.807 118.458C143.841 118.458 135.756 110.372 135.756 100.407C135.756 90.4411 143.841 82.356 153.807 82.356C163.772 82.356 171.858 90.4411 171.858 100.407C171.858 110.372 163.772 118.458 153.807 118.458ZM153.807 85.1764C145.346 85.1764 138.577 91.9453 138.577 100.407C138.577 108.868 145.346 115.637 153.807 115.637C162.268 115.637 169.037 108.868 169.037 100.407C169.037 91.9453 162.08 85.1764 153.807 85.1764Z" fill="#231F20"/>
<path d="M138.013 98.9023H128.987V101.911H138.013V98.9023Z" fill="#231F20"/>
<path d="M178.25 98.9023H169.601V101.911H178.25V98.9023Z" fill="#231F20"/>
<path d="M96.4584 98.9023H88.373V101.911H96.4584V98.9023Z" fill="#231F20"/>
</svg>
