<svg width="23" height="23" viewBox="0 0 23 23" fill="none" xmlns="http://www.w3.org/2000/svg">
<g clip-path="url(#clip0_113_87)">
<path d="M8.61164 1.17397C8.74432 1.33519 8.8256 1.53249 8.84498 1.74039C8.86437 1.94828 8.82096 2.15721 8.72038 2.34018C7.93455 3.78296 7.52417 5.40019 7.52698 7.0431C7.52698 12.5085 11.9825 16.9342 17.4738 16.9342C18.1901 16.9342 18.8874 16.8594 19.5575 16.7167C19.7629 16.6722 19.9768 16.6892 20.1726 16.7656C20.3685 16.842 20.5374 16.9744 20.6584 17.1462C20.7862 17.3249 20.8513 17.5407 20.8437 17.7603C20.8361 17.9798 20.7561 18.1906 20.6163 18.36C19.5502 19.6695 18.2054 20.7246 16.6798 21.4484C15.1542 22.1722 13.4862 22.5464 11.7977 22.5437C5.53164 22.5437 0.456299 17.4955 0.456299 11.2757C0.456299 6.59455 3.3297 2.57941 7.42096 0.877659C7.62476 0.791528 7.851 0.77385 8.06571 0.827281C8.28041 0.880711 8.47198 1.00237 8.61164 1.17397ZM7.05941 2.57805C5.48625 3.42189 4.17111 4.6762 3.25376 6.20767C2.33641 7.73913 1.85113 9.49053 1.8495 11.2757C1.8495 16.7398 6.3064 21.1654 11.7977 21.1654C13.1126 21.1677 14.415 20.9091 15.6294 20.4047C16.8438 19.9003 17.946 19.1601 18.8724 18.2268C18.4144 18.2839 17.9481 18.3124 17.4738 18.3124C11.2078 18.3124 6.13377 13.2643 6.13377 7.04446C6.13377 5.45824 6.46271 3.94814 7.05941 2.57805Z" fill="white"/>
<path d="M15.1277 5.07494C15.1472 5.01608 15.1848 4.96486 15.235 4.92855C15.2853 4.89225 15.3457 4.87271 15.4077 4.87271C15.4697 4.87271 15.5302 4.89225 15.5804 4.92855C15.6307 4.96486 15.6682 5.01608 15.6877 5.07494L16.2137 6.65436C16.4489 7.35844 17.0007 7.91028 17.7048 8.14543L19.2842 8.67145C19.3431 8.69094 19.3943 8.72848 19.4306 8.77875C19.4669 8.82901 19.4865 8.88944 19.4865 8.95145C19.4865 9.01345 19.4669 9.07388 19.4306 9.12414C19.3943 9.17441 19.3431 9.21196 19.2842 9.23145L17.7048 9.75747C17.3576 9.87316 17.042 10.0681 16.7832 10.3269C16.5244 10.5858 16.3294 10.9013 16.2137 11.2485L15.6877 12.828C15.6682 12.8868 15.6307 12.938 15.5804 12.9743C15.5302 13.0106 15.4697 13.0302 15.4077 13.0302C15.3457 13.0302 15.2853 13.0106 15.235 12.9743C15.1848 12.938 15.1472 12.8868 15.1277 12.828L14.6017 11.2485C14.486 10.9013 14.291 10.5858 14.0322 10.3269C13.7734 10.0681 13.4579 9.87316 13.1106 9.75747L11.5312 9.23145C11.4724 9.21196 11.4211 9.17441 11.3848 9.12414C11.3485 9.07388 11.329 9.01345 11.329 8.95145C11.329 8.88944 11.3485 8.82901 11.3848 8.77875C11.4211 8.72848 11.4724 8.69094 11.5312 8.67145L13.1106 8.14543C13.4579 8.02973 13.7734 7.83476 14.0322 7.57595C14.291 7.31714 14.486 7.00161 14.6017 6.65436L15.1277 5.07494ZM19.2992 0.930669C19.3126 0.891967 19.3377 0.858407 19.3711 0.834656C19.4045 0.810904 19.4444 0.798141 19.4854 0.798141C19.5264 0.798141 19.5663 0.810904 19.5997 0.834656C19.633 0.858407 19.6582 0.891967 19.6716 0.930669L20.0223 1.98271C20.1786 2.453 20.5469 2.82135 21.0172 2.97766L22.0693 3.32834C22.108 3.34176 22.1415 3.3669 22.1653 3.40027C22.189 3.43365 22.2018 3.47359 22.2018 3.51455C22.2018 3.55551 22.189 3.59546 22.1653 3.62883C22.1415 3.66221 22.108 3.68735 22.0693 3.70077L21.0172 4.05145C20.7855 4.12855 20.5749 4.25861 20.4022 4.43133C20.2294 4.60404 20.0994 4.81463 20.0223 5.0464L19.6716 6.09844C19.6582 6.13714 19.633 6.1707 19.5997 6.19445C19.5663 6.2182 19.5264 6.23096 19.4854 6.23096C19.4444 6.23096 19.4045 6.2182 19.3711 6.19445C19.3377 6.1707 19.3126 6.13714 19.2992 6.09844L18.9485 5.0464C18.8714 4.81463 18.7413 4.60404 18.5686 4.43133C18.3959 4.25861 18.1853 4.12855 17.9535 4.05145L16.9015 3.70077C16.8628 3.68735 16.8292 3.66221 16.8055 3.62883C16.7817 3.59546 16.769 3.55551 16.769 3.51455C16.769 3.47359 16.7817 3.43365 16.8055 3.40027C16.8292 3.3669 16.8628 3.34176 16.9015 3.32834L17.9535 2.97766C18.4238 2.82135 18.7922 2.453 18.9485 1.98271L19.2992 0.932029V0.930669Z" fill="white"/>
</g>
<defs>
<clipPath id="clip0_113_87">
<rect width="21.7476" height="21.7476" fill="white" transform="translate(0.456299 0.796112)"/>
</clipPath>
</defs>
</svg>
