<svg width="23" height="23" viewBox="0 0 23 23" fill="none" xmlns="http://www.w3.org/2000/svg">
<g clip-path="url(#clip0_113_71)">
<path fill-rule="evenodd" clip-rule="evenodd" d="M11.3301 15.0679C12.2313 15.0679 13.0956 14.7099 13.7329 14.0727C14.3701 13.4354 14.7281 12.5711 14.7281 11.6699C14.7281 10.7687 14.3701 9.90435 13.7329 9.26709C13.0956 8.62983 12.2313 8.27182 11.3301 8.27182C10.4289 8.27182 9.56455 8.62983 8.92729 9.26709C8.29004 9.90435 7.93203 10.7687 7.93203 11.6699C7.93203 12.5711 8.29004 13.4354 8.92729 14.0727C9.56455 14.7099 10.4289 15.0679 11.3301 15.0679ZM11.3301 17.1068C12.772 17.1068 14.1549 16.534 15.1745 15.5143C16.1942 14.4947 16.767 13.1118 16.767 11.6699C16.767 10.2279 16.1942 8.84503 15.1745 7.82542C14.1549 6.8058 12.772 6.23299 11.3301 6.23299C9.88813 6.23299 8.50524 6.8058 7.48562 7.82542C6.46601 8.84503 5.89319 10.2279 5.89319 11.6699C5.89319 13.1118 6.46601 14.4947 7.48562 15.5143C8.50524 16.534 9.88813 17.1068 11.3301 17.1068ZM11.3301 0.796097C11.6005 0.796097 11.8597 0.903499 12.0509 1.09468C12.2421 1.28586 12.3495 1.54515 12.3495 1.81551V3.85435C12.3495 4.12472 12.2421 4.38401 12.0509 4.57519C11.8597 4.76636 11.6005 4.87377 11.3301 4.87377C11.0597 4.87377 10.8004 4.76636 10.6092 4.57519C10.4181 4.38401 10.3107 4.12472 10.3107 3.85435V1.81551C10.3107 1.54515 10.4181 1.28586 10.6092 1.09468C10.8004 0.903499 11.0597 0.796097 11.3301 0.796097V0.796097ZM11.3301 18.466C11.6005 18.466 11.8597 18.5734 12.0509 18.7646C12.2421 18.9558 12.3495 19.215 12.3495 19.4854V21.5243C12.3495 21.7946 12.2421 22.0539 12.0509 22.2451C11.8597 22.4363 11.6005 22.5437 11.3301 22.5437C11.0597 22.5437 10.8004 22.4363 10.6092 22.2451C10.4181 22.0539 10.3107 21.7946 10.3107 21.5243V19.4854C10.3107 19.215 10.4181 18.9558 10.6092 18.7646C10.8004 18.5734 11.0597 18.466 11.3301 18.466ZM3.64096 3.98076C3.73563 3.88603 3.84804 3.81088 3.97176 3.75961C4.09549 3.70833 4.2281 3.68195 4.36203 3.68195C4.49595 3.68195 4.62857 3.70833 4.75229 3.75961C4.87602 3.81088 4.98842 3.88603 5.08309 3.98076L6.52387 5.42289C6.70394 5.61614 6.80197 5.87174 6.79731 6.13584C6.79265 6.39993 6.68567 6.65191 6.49889 6.83869C6.31212 7.02546 6.06014 7.13245 5.79604 7.13711C5.53194 7.14177 5.27634 7.04374 5.08309 6.86367L3.64232 5.42289C3.45141 5.23175 3.34419 4.97265 3.34419 4.7025C3.34419 4.43236 3.45141 4.17326 3.64232 3.98212L3.64096 3.98076ZM16.1363 16.4761C16.3274 16.2852 16.5865 16.178 16.8567 16.178C17.1268 16.178 17.3859 16.2852 17.5771 16.4761L19.0192 17.9169C19.205 18.109 19.3079 18.3665 19.3057 18.6338C19.3035 18.9011 19.1964 19.1568 19.0075 19.3459C18.8186 19.535 18.5629 19.6424 18.2956 19.6448C18.0283 19.6472 17.7708 19.5446 17.5784 19.359L16.1363 17.9182C16.0416 17.8236 15.9664 17.7112 15.9151 17.5874C15.8639 17.4637 15.8375 17.3311 15.8375 17.1972C15.8375 17.0632 15.8639 16.9306 15.9151 16.8069C15.9664 16.6832 16.0416 16.5708 16.1363 16.4761ZM22.2039 11.6699C22.2039 11.9402 22.0965 12.1995 21.9053 12.3907C21.7141 12.5819 21.4548 12.6893 21.1845 12.6893H19.1456C18.8753 12.6893 18.616 12.5819 18.4248 12.3907C18.2336 12.1995 18.1262 11.9402 18.1262 11.6699C18.1262 11.3995 18.2336 11.1402 18.4248 10.949C18.616 10.7579 18.8753 10.6505 19.1456 10.6505H21.1845C21.4548 10.6505 21.7141 10.7579 21.9053 10.949C22.0965 11.1402 22.2039 11.3995 22.2039 11.6699ZM4.53397 11.6699C4.53397 11.9402 4.42657 12.1995 4.23539 12.3907C4.04421 12.5819 3.78492 12.6893 3.51455 12.6893H1.47572C1.20535 12.6893 0.946057 12.5819 0.754879 12.3907C0.563701 12.1995 0.456299 11.9402 0.456299 11.6699C0.456299 11.3995 0.563701 11.1402 0.754879 10.949C0.946057 10.7579 1.20535 10.6505 1.47572 10.6505H3.51455C3.78492 10.6505 4.04421 10.7579 4.23539 10.949C4.42657 11.1402 4.53397 11.3995 4.53397 11.6699ZM19.0192 3.98076C19.1139 4.07543 19.1891 4.18784 19.2404 4.31156C19.2916 4.43528 19.318 4.5679 19.318 4.70182C19.318 4.83575 19.2916 4.96837 19.2404 5.09209C19.1891 5.21581 19.1139 5.32822 19.0192 5.42289L17.5771 6.86367C17.4837 6.96383 17.3712 7.04416 17.2462 7.09988C17.1211 7.15559 16.9861 7.18555 16.8492 7.18797C16.7124 7.19038 16.5764 7.1652 16.4495 7.11393C16.3225 7.06266 16.2072 6.98635 16.1104 6.88955C16.0136 6.79274 15.9373 6.67744 15.886 6.5505C15.8348 6.42357 15.8096 6.2876 15.812 6.15073C15.8144 6.01385 15.8444 5.87886 15.9001 5.75381C15.9558 5.62876 16.0361 5.51622 16.1363 5.42289L17.5771 3.98212C17.7682 3.79121 18.0273 3.68398 18.2975 3.68398C18.5676 3.68398 18.8267 3.79121 19.0179 3.98212L19.0192 3.98076ZM6.52387 16.4761C6.71478 16.6672 6.822 16.9263 6.822 17.1965C6.822 17.4666 6.71478 17.7257 6.52387 17.9169L5.08309 19.359C4.9891 19.4564 4.87665 19.5341 4.7523 19.5876C4.62796 19.6411 4.4942 19.6693 4.35885 19.6705C4.22349 19.6718 4.08924 19.646 3.96394 19.5948C3.83863 19.5436 3.72477 19.468 3.62901 19.3723C3.53325 19.2767 3.4575 19.1629 3.40619 19.0376C3.35487 18.9124 3.32902 18.7781 3.33013 18.6428C3.33124 18.5074 3.3593 18.3736 3.41266 18.2492C3.46603 18.1248 3.54364 18.0123 3.64096 17.9182L5.08174 16.4761C5.17641 16.3814 5.28881 16.3062 5.41254 16.2549C5.53626 16.2037 5.66888 16.1773 5.8028 16.1773C5.93673 16.1773 6.06934 16.2037 6.19307 16.2549C6.31679 16.3062 6.4292 16.3814 6.52387 16.4761Z" fill="#161515"/>
</g>
<defs>
<clipPath id="clip0_113_71">
<rect width="21.7476" height="21.7476" fill="white" transform="translate(0.456299 0.796097)"/>
</clipPath>
</defs>
</svg>
