<svg width="53" height="79" viewBox="0 0 53 79" fill="none" xmlns="http://www.w3.org/2000/svg">
<g id="logo_white">
<g id="arrow">
<path id="Vector" d="M3.72327 29.1132L9.27386 28.0784V56.7541V56.8386L9.34607 56.8824L16.3023 61.1018L16.5301 61.2399V60.9735V26.9372L22.2394 25.9009V72.3877L3.72327 59.1264V29.1132ZM25.1126 22.9447H24.9811L24.9676 22.7947H24.9626H24.8126V22.8203L21.847 23.3573L21.8469 23.3574L15.8378 24.4481L15.8377 24.4481L13.7802 24.82L13.6568 24.8423V24.9676V26.812V56.3934L12.1521 55.4798V27.9028V25.1064V24.9258L11.9746 24.959L8.86585 25.5391L8.86583 25.5391L3.01526 26.6298L3.01519 26.6299L0.972443 27.0116L0.85 27.0345V27.1591V28.9936V59.2084V60.2843V60.3613L0.912573 60.4062L1.85958 61.0855L1.85966 61.0855L20.6757 74.5617L20.6758 74.5617L24.8753 77.5713L25.1126 77.7414V77.4494V72.6846V25.7212V22.9447Z" fill="white" stroke="#49BDAC" stroke-width="0.3"/>
<path id="Vector_2" d="M36.7717 60.7058V60.9719L36.9993 60.8341L43.9705 56.6147L44.0428 56.571V56.4864V33.6195V33.4983L43.9243 33.4729L36.9532 31.9755L36.7717 31.9365V32.1222V60.7058ZM28.6347 22.8757L28.4618 22.8491V23.024V25.7212V72.6797V77.4891V77.7831L28.6999 77.6105L32.9192 74.5514L32.9192 74.5513L51.5172 61.0752L51.4317 60.9572L51.5172 61.0751L52.4543 60.3959L52.5162 60.351V60.2744V59.2084V28.5821V26.6781V26.5494L52.3889 26.5299L50.2521 26.2026L50.252 26.2026L31.6591 23.3418L31.6591 23.3418L28.6347 22.8757ZM31.3401 72.3808V25.896L49.638 28.7058V59.122L31.3401 72.3808ZM41.1695 55.2118L39.6548 56.1264V35.1936L41.1695 35.5206V55.2118Z" fill="white" stroke="#49BDAC" stroke-width="0.3"/>
</g>
<path id="top" d="M39.0685 3.00679H38.9185V3.15679V9.22924H33.2093V1V0.85H33.0593H20.3714H20.2214V1V9.21932H14.3188V3.15679V3.00679H14.1688H1H0.85V3.15679V22.4637V22.6413L1.0251 22.6116L26.7033 18.2527L52.3418 22.4828L52.5162 22.5116V22.3348V3.15679V3.00679H52.3662H39.0685ZM26.6581 15.7364L3.40595 19.6733V5.4834H11.7579V11.5509V11.7009H11.9079H22.6323V11.5509H22.7823V3.32662H30.6484V11.5559V11.7059H30.7984H41.3245H41.4745V11.5559V5.4834H49.9504V19.5847L26.7076 15.7363L26.6828 15.7322L26.6581 15.7364Z" fill="white" stroke="#49BDAC" stroke-width="0.3"/>
</g>
</svg>
