<svg width="52" height="77" viewBox="0 0 52 77" fill="none" xmlns="http://www.w3.org/2000/svg">
<g id="logo">
<g id="arrow">
<path id="Vector" d="M21.3894 24.7213V71.6797L2.57327 58.2035V27.9887L8.42386 26.8979V55.7542L15.3801 59.9735V25.812L21.3894 24.7213ZM23.9676 21.9447L20.8737 22.505L14.8645 23.5958L12.8069 23.9676V25.812V55.66L11.0021 54.5642V26.9028V24.1064L7.89334 24.6865L2.04275 25.7773L0 26.1591V27.9936V58.2085V59.2844L0.947003 59.9636L19.7631 73.4398L23.9626 76.4494V71.6846V24.7213V21.9447H23.9676Z" fill="#161515"/>
<path id="Vector_2" d="M30.19 24.7213L48.788 27.5772V58.1986L30.19 71.6748V24.7213ZM35.9216 59.7059L42.8928 55.4865V32.6196L35.9216 31.1222V59.7059ZM27.6118 22.024V24.7213V71.6797V76.4891L31.8312 73.43L50.4291 59.9538L51.3662 59.2745V58.2085V27.5821V25.6782L49.2293 25.351L30.6363 22.4901L27.6118 22.024ZM38.5048 55.3923V34.0079L40.3195 34.3995V54.2965L38.5048 55.3923Z" fill="#161515"/>
</g>
<g id="crown">
<path id="Vector_3" d="M38.0685 2.15679V8.37924H32.0593V0H19.3714V8.36932H13.1688V2.15679H0V21.4637L25.7029 17.1006L51.3662 21.3348V2.15679H38.0685ZM21.6323 10.5509V2.17662H29.7984V10.5559H40.3245V4.3334H49.1004V18.7616L25.6831 14.8843L2.25595 18.8508V4.3334H10.9079V10.5509H21.6323V10.5509Z" fill="#161515"/>
</g>
</g>
</svg>
